<mxfile host="app.diagrams.net" agent="Mozilla/5.0 (Windows NT 10.0; Win64; x64) AppleWebKit/537.36 (KHTML, like Gecko) Chrome/133.0.0.0 Safari/537.36" version="26.0.16">
  <diagram name="Страница — 1" id="y9JGwa_LkSL3lwwBix8K">
    <mxGraphModel grid="1" page="1" gridSize="10" guides="1" tooltips="1" connect="1" arrows="1" fold="1" pageScale="1" pageWidth="827" pageHeight="1169" math="0" shadow="0">
      <root>
        <mxCell id="0" />
        <mxCell id="1" parent="0" />
        <mxCell id="aqyvxcZ9aejzQuQsrZ5U-11" value="&lt;div style=&quot;background-color:#282c34;color:#abb2bf&quot;&gt;&lt;pre style=&quot;font-family:&#39;JetBrains Mono&#39;,monospace;font-size:9.8pt;&quot;&gt;author&lt;/pre&gt;&lt;/div&gt;" style="swimlane;fontStyle=0;childLayout=stackLayout;horizontal=1;startSize=30;horizontalStack=0;resizeParent=1;resizeParentMax=0;resizeLast=0;collapsible=1;marginBottom=0;whiteSpace=wrap;html=1;" vertex="1" parent="1">
          <mxGeometry x="120" y="160" width="186" height="90" as="geometry" />
        </mxCell>
        <mxCell id="aqyvxcZ9aejzQuQsrZ5U-12" value="&lt;div style=&quot;background-color:#282c34;color:#abb2bf&quot;&gt;&lt;pre style=&quot;font-family:&#39;JetBrains Mono&#39;,monospace;font-size:9.8pt;&quot;&gt;&lt;span style=&quot;color:#c678dd;&quot;&gt;id &lt;/span&gt;serial&lt;/pre&gt;&lt;/div&gt;" style="text;strokeColor=none;fillColor=none;align=left;verticalAlign=middle;spacingLeft=4;spacingRight=4;overflow=hidden;points=[[0,0.5],[1,0.5]];portConstraint=eastwest;rotatable=0;whiteSpace=wrap;html=1;" vertex="1" parent="aqyvxcZ9aejzQuQsrZ5U-11">
          <mxGeometry y="30" width="186" height="30" as="geometry" />
        </mxCell>
        <mxCell id="aqyvxcZ9aejzQuQsrZ5U-13" value="&lt;div style=&quot;background-color: rgb(40, 44, 52); color: rgb(171, 178, 191);&quot;&gt;&lt;pre style=&quot;font-family:&#39;JetBrains Mono&#39;,monospace;font-size:9.8pt;&quot;&gt;&lt;div&gt;&lt;pre style=&quot;font-family:&#39;JetBrains Mono&#39;,monospace;font-size:9.8pt;&quot;&gt;author_name &lt;span style=&quot;color:#d19a66;&quot;&gt;VARCHAR&lt;/span&gt;(&lt;span style=&quot;color:#d19a66;&quot;&gt;250&lt;/span&gt;)&lt;/pre&gt;&lt;/div&gt;&lt;/pre&gt;&lt;/div&gt;" style="text;strokeColor=none;fillColor=none;align=left;verticalAlign=middle;spacingLeft=4;spacingRight=4;overflow=hidden;points=[[0,0.5],[1,0.5]];portConstraint=eastwest;rotatable=0;whiteSpace=wrap;html=1;" vertex="1" parent="aqyvxcZ9aejzQuQsrZ5U-11">
          <mxGeometry y="60" width="186" height="30" as="geometry" />
        </mxCell>
        <mxCell id="aqyvxcZ9aejzQuQsrZ5U-15" value="&lt;div style=&quot;background-color:#282c34;color:#abb2bf&quot;&gt;&lt;pre style=&quot;font-family:&#39;JetBrains Mono&#39;,monospace;font-size:9.8pt;&quot;&gt;book&lt;/pre&gt;&lt;/div&gt;" style="swimlane;fontStyle=0;childLayout=stackLayout;horizontal=1;startSize=30;horizontalStack=0;resizeParent=1;resizeParentMax=0;resizeLast=0;collapsible=1;marginBottom=0;whiteSpace=wrap;html=1;" vertex="1" parent="1">
          <mxGeometry x="650" y="160" width="140" height="90" as="geometry" />
        </mxCell>
        <mxCell id="aqyvxcZ9aejzQuQsrZ5U-16" value="&lt;div style=&quot;background-color:#282c34;color:#abb2bf&quot;&gt;&lt;pre style=&quot;font-family:&#39;JetBrains Mono&#39;,monospace;font-size:9.8pt;&quot;&gt;&lt;span style=&quot;color:#c678dd;&quot;&gt;id &lt;/span&gt;serial&lt;/pre&gt;&lt;/div&gt;" style="text;strokeColor=none;fillColor=none;align=left;verticalAlign=middle;spacingLeft=4;spacingRight=4;overflow=hidden;points=[[0,0.5],[1,0.5]];portConstraint=eastwest;rotatable=0;whiteSpace=wrap;html=1;" vertex="1" parent="aqyvxcZ9aejzQuQsrZ5U-15">
          <mxGeometry y="30" width="140" height="30" as="geometry" />
        </mxCell>
        <mxCell id="aqyvxcZ9aejzQuQsrZ5U-17" value="&lt;div style=&quot;background-color:#282c34;color:#abb2bf&quot;&gt;&lt;pre style=&quot;font-family:&#39;JetBrains Mono&#39;,monospace;font-size:9.8pt;&quot;&gt;title &lt;span style=&quot;color:#d19a66;&quot;&gt;VARCHAR&lt;/span&gt;(&lt;span style=&quot;color:#d19a66;&quot;&gt;250&lt;/span&gt;)&lt;/pre&gt;&lt;/div&gt;" style="text;strokeColor=none;fillColor=none;align=left;verticalAlign=middle;spacingLeft=4;spacingRight=4;overflow=hidden;points=[[0,0.5],[1,0.5]];portConstraint=eastwest;rotatable=0;whiteSpace=wrap;html=1;" vertex="1" parent="aqyvxcZ9aejzQuQsrZ5U-15">
          <mxGeometry y="60" width="140" height="30" as="geometry" />
        </mxCell>
        <mxCell id="aqyvxcZ9aejzQuQsrZ5U-23" value="&lt;pre style=&quot;color: rgb(171, 178, 191); font-size: 9.8pt; background-color: rgb(40, 44, 52); font-family: &amp;quot;JetBrains Mono&amp;quot;, monospace;&quot;&gt;book_authors&lt;/pre&gt;" style="swimlane;fontStyle=0;childLayout=stackLayout;horizontal=1;startSize=30;horizontalStack=0;resizeParent=1;resizeParentMax=0;resizeLast=0;collapsible=1;marginBottom=0;whiteSpace=wrap;html=1;" vertex="1" parent="1">
          <mxGeometry x="350" y="360" width="220" height="120" as="geometry" />
        </mxCell>
        <mxCell id="aqyvxcZ9aejzQuQsrZ5U-24" value="&lt;div style=&quot;background-color:#282c34;color:#abb2bf&quot;&gt;&lt;pre style=&quot;font-family:&#39;JetBrains Mono&#39;,monospace;font-size:9.8pt;&quot;&gt;&lt;span style=&quot;color:#c678dd;&quot;&gt;id &lt;/span&gt;serial&lt;/pre&gt;&lt;/div&gt;" style="text;strokeColor=none;fillColor=none;align=left;verticalAlign=middle;spacingLeft=4;spacingRight=4;overflow=hidden;points=[[0,0.5],[1,0.5]];portConstraint=eastwest;rotatable=0;whiteSpace=wrap;html=1;" vertex="1" parent="aqyvxcZ9aejzQuQsrZ5U-23">
          <mxGeometry y="30" width="220" height="30" as="geometry" />
        </mxCell>
        <mxCell id="aqyvxcZ9aejzQuQsrZ5U-25" value="&lt;div style=&quot;background-color:#282c34;color:#abb2bf&quot;&gt;&lt;pre style=&quot;font-family:&#39;JetBrains Mono&#39;,monospace;font-size:9.8pt;&quot;&gt;author_id &lt;span style=&quot;color:#d19a66;&quot;&gt;INT&lt;/span&gt;&lt;/pre&gt;&lt;/div&gt;" style="text;strokeColor=none;fillColor=none;align=left;verticalAlign=middle;spacingLeft=4;spacingRight=4;overflow=hidden;points=[[0,0.5],[1,0.5]];portConstraint=eastwest;rotatable=0;whiteSpace=wrap;html=1;" vertex="1" parent="aqyvxcZ9aejzQuQsrZ5U-23">
          <mxGeometry y="60" width="220" height="30" as="geometry" />
        </mxCell>
        <mxCell id="aqyvxcZ9aejzQuQsrZ5U-26" value="&lt;div style=&quot;background-color:#282c34;color:#abb2bf&quot;&gt;&lt;pre style=&quot;font-family:&#39;JetBrains Mono&#39;,monospace;font-size:9.8pt;&quot;&gt;book_id &lt;span style=&quot;color:#d19a66;&quot;&gt;INT&lt;/span&gt;&lt;/pre&gt;&lt;/div&gt;" style="text;strokeColor=none;fillColor=none;align=left;verticalAlign=middle;spacingLeft=4;spacingRight=4;overflow=hidden;points=[[0,0.5],[1,0.5]];portConstraint=eastwest;rotatable=0;whiteSpace=wrap;html=1;" vertex="1" parent="aqyvxcZ9aejzQuQsrZ5U-23">
          <mxGeometry y="90" width="220" height="30" as="geometry" />
        </mxCell>
        <mxCell id="aqyvxcZ9aejzQuQsrZ5U-30" style="edgeStyle=orthogonalEdgeStyle;rounded=0;orthogonalLoop=1;jettySize=auto;html=1;" edge="1" parent="1" source="aqyvxcZ9aejzQuQsrZ5U-25" target="aqyvxcZ9aejzQuQsrZ5U-12">
          <mxGeometry relative="1" as="geometry" />
        </mxCell>
        <mxCell id="aqyvxcZ9aejzQuQsrZ5U-31" style="edgeStyle=orthogonalEdgeStyle;rounded=0;orthogonalLoop=1;jettySize=auto;html=1;" edge="1" parent="1" source="aqyvxcZ9aejzQuQsrZ5U-26" target="aqyvxcZ9aejzQuQsrZ5U-16">
          <mxGeometry relative="1" as="geometry" />
        </mxCell>
      </root>
    </mxGraphModel>
  </diagram>
</mxfile>
